<mxfile host="app.diagrams.net" modified="2024-04-27T16:03:54.277Z" agent="Mozilla/5.0 (Windows NT 10.0; Win64; x64) AppleWebKit/537.36 (KHTML, like Gecko) Chrome/124.0.0.0 Safari/537.36 Edg/124.0.0.0" etag="lU2BxKcI-_0hni37AS73" version="24.2.7" type="device">
  <diagram name="Page-1" id="LMs1pVUBA5x4UGxIWXJO">
    <mxGraphModel dx="1569" dy="369" grid="1" gridSize="10" guides="1" tooltips="1" connect="1" arrows="1" fold="1" page="1" pageScale="1" pageWidth="850" pageHeight="1100" background="none" math="0" shadow="0">
      <root>
        <mxCell id="0" />
        <mxCell id="1" parent="0" />
        <mxCell id="epYIrqpOVhf9hrF9o7eT-4" value="" style="rounded=0;whiteSpace=wrap;html=1;" vertex="1" parent="1">
          <mxGeometry x="380" y="165" width="120" height="60" as="geometry" />
        </mxCell>
        <mxCell id="nyTj451w1FUOhVBQuWbl-175" style="edgeStyle=orthogonalEdgeStyle;rounded=0;orthogonalLoop=1;jettySize=auto;html=1;entryX=0;entryY=0.5;entryDx=0;entryDy=0;" parent="1" source="nyTj451w1FUOhVBQuWbl-1" target="nyTj451w1FUOhVBQuWbl-23" edge="1">
          <mxGeometry relative="1" as="geometry" />
        </mxCell>
        <mxCell id="nyTj451w1FUOhVBQuWbl-1" value="Data Collection" style="ellipse;aspect=fixed;fontFamily=Lucida Console;whiteSpace=wrap;labelBackgroundColor=#000000;fontColor=#FFFFFF;fillColor=#000000;" parent="1" vertex="1">
          <mxGeometry x="-232" y="340" width="130" height="130" as="geometry" />
        </mxCell>
        <mxCell id="nyTj451w1FUOhVBQuWbl-44" style="edgeStyle=orthogonalEdgeStyle;rounded=0;orthogonalLoop=1;jettySize=auto;html=1;exitX=1;exitY=0.5;exitDx=0;exitDy=0;flowAnimation=0;" parent="1" source="nyTj451w1FUOhVBQuWbl-4" edge="1">
          <mxGeometry relative="1" as="geometry">
            <mxPoint x="470" y="240" as="targetPoint" />
          </mxGeometry>
        </mxCell>
        <mxCell id="nyTj451w1FUOhVBQuWbl-45" style="edgeStyle=orthogonalEdgeStyle;rounded=0;orthogonalLoop=1;jettySize=auto;html=1;flowAnimation=0;" parent="1" source="nyTj451w1FUOhVBQuWbl-4" edge="1">
          <mxGeometry relative="1" as="geometry">
            <mxPoint x="470" y="300" as="targetPoint" />
          </mxGeometry>
        </mxCell>
        <mxCell id="nyTj451w1FUOhVBQuWbl-4" value="Linear Regression" style="rounded=0;whiteSpace=wrap;html=1;fillColor=#dae8fc;gradientColor=#7ea6e0;strokeColor=#6c8ebf;" parent="1" vertex="1">
          <mxGeometry x="270" y="240" width="120" height="60" as="geometry" />
        </mxCell>
        <mxCell id="nyTj451w1FUOhVBQuWbl-158" style="edgeStyle=orthogonalEdgeStyle;rounded=0;orthogonalLoop=1;jettySize=auto;html=1;exitX=0.987;exitY=0.106;exitDx=0;exitDy=0;entryX=0;entryY=0.5;entryDx=0;entryDy=0;exitPerimeter=0;" parent="1" source="nyTj451w1FUOhVBQuWbl-23" target="nyTj451w1FUOhVBQuWbl-4" edge="1">
          <mxGeometry relative="1" as="geometry">
            <mxPoint x="230" y="405.33333333333326" as="targetPoint" />
            <Array as="points">
              <mxPoint x="230" y="275" />
              <mxPoint x="230" y="270" />
            </Array>
          </mxGeometry>
        </mxCell>
        <mxCell id="nyTj451w1FUOhVBQuWbl-160" style="edgeStyle=orthogonalEdgeStyle;rounded=0;orthogonalLoop=1;jettySize=auto;html=1;entryX=0;entryY=0.5;entryDx=0;entryDy=0;exitX=1.003;exitY=0.104;exitDx=0;exitDy=0;exitPerimeter=0;" parent="1" source="nyTj451w1FUOhVBQuWbl-23" target="nyTj451w1FUOhVBQuWbl-46" edge="1">
          <mxGeometry relative="1" as="geometry" />
        </mxCell>
        <mxCell id="nyTj451w1FUOhVBQuWbl-161" style="edgeStyle=orthogonalEdgeStyle;rounded=0;orthogonalLoop=1;jettySize=auto;html=1;entryX=0;entryY=0.5;entryDx=0;entryDy=0;exitX=0.983;exitY=0.108;exitDx=0;exitDy=0;exitPerimeter=0;" parent="1" source="nyTj451w1FUOhVBQuWbl-23" target="nyTj451w1FUOhVBQuWbl-47" edge="1">
          <mxGeometry relative="1" as="geometry">
            <Array as="points">
              <mxPoint x="220" y="276" />
              <mxPoint x="220" y="430" />
            </Array>
          </mxGeometry>
        </mxCell>
        <mxCell id="nyTj451w1FUOhVBQuWbl-162" style="edgeStyle=orthogonalEdgeStyle;rounded=0;orthogonalLoop=1;jettySize=auto;html=1;exitX=0.991;exitY=0.106;exitDx=0;exitDy=0;exitPerimeter=0;" parent="1" source="nyTj451w1FUOhVBQuWbl-23" target="nyTj451w1FUOhVBQuWbl-48" edge="1">
          <mxGeometry relative="1" as="geometry">
            <Array as="points">
              <mxPoint x="210" y="275" />
              <mxPoint x="210" y="510" />
            </Array>
          </mxGeometry>
        </mxCell>
        <mxCell id="nyTj451w1FUOhVBQuWbl-163" style="edgeStyle=orthogonalEdgeStyle;rounded=0;orthogonalLoop=1;jettySize=auto;html=1;entryX=0;entryY=0.5;entryDx=0;entryDy=0;exitX=1.019;exitY=0.106;exitDx=0;exitDy=0;exitPerimeter=0;" parent="1" source="nyTj451w1FUOhVBQuWbl-23" target="nyTj451w1FUOhVBQuWbl-49" edge="1">
          <mxGeometry relative="1" as="geometry">
            <Array as="points">
              <mxPoint x="200" y="275" />
              <mxPoint x="200" y="590" />
            </Array>
          </mxGeometry>
        </mxCell>
        <mxCell id="nyTj451w1FUOhVBQuWbl-23" value="Data Pre-Processing" style="swimlane;fontStyle=0;childLayout=stackLayout;horizontal=1;startSize=70;horizontalStack=0;resizeParent=1;resizeParentMax=0;resizeLast=0;collapsible=1;marginBottom=0;whiteSpace=wrap;html=1;fillColor=#fff2cc;gradientColor=#ffd966;strokeColor=#d6b656;" parent="1" vertex="1">
          <mxGeometry x="50" y="240" width="140" height="330" as="geometry" />
        </mxCell>
        <mxCell id="nyTj451w1FUOhVBQuWbl-24" value="Handling Duplicate Data" style="text;strokeColor=#666666;fillColor=#f5f5f5;align=left;verticalAlign=middle;spacingLeft=4;spacingRight=4;overflow=hidden;points=[[0,0.5],[1,0.5]];portConstraint=eastwest;rotatable=0;whiteSpace=wrap;html=1;gradientColor=#b3b3b3;" parent="nyTj451w1FUOhVBQuWbl-23" vertex="1">
          <mxGeometry y="70" width="140" height="60" as="geometry" />
        </mxCell>
        <mxCell id="nyTj451w1FUOhVBQuWbl-25" value="Handling Missing Data" style="text;strokeColor=#666666;fillColor=#f5f5f5;align=left;verticalAlign=middle;spacingLeft=4;spacingRight=4;overflow=hidden;points=[[0,0.5],[1,0.5]];portConstraint=eastwest;rotatable=0;whiteSpace=wrap;html=1;gradientColor=#b3b3b3;" parent="nyTj451w1FUOhVBQuWbl-23" vertex="1">
          <mxGeometry y="130" width="140" height="60" as="geometry" />
        </mxCell>
        <mxCell id="nyTj451w1FUOhVBQuWbl-26" value="Extracting Independent and Dependent Variables&lt;div&gt;&lt;br&gt;&lt;/div&gt;&lt;div&gt;Dropping Unnecessary Columns&lt;/div&gt;&lt;div&gt;&lt;br&gt;&lt;/div&gt;&lt;div&gt;Splitting the Dataset&lt;/div&gt;" style="text;strokeColor=#666666;fillColor=#f5f5f5;align=left;verticalAlign=middle;spacingLeft=4;spacingRight=4;overflow=hidden;points=[[0,0.5],[1,0.5]];portConstraint=eastwest;rotatable=0;whiteSpace=wrap;html=1;gradientColor=#b3b3b3;" parent="nyTj451w1FUOhVBQuWbl-23" vertex="1">
          <mxGeometry y="190" width="140" height="140" as="geometry" />
        </mxCell>
        <mxCell id="nyTj451w1FUOhVBQuWbl-38" value="" style="endArrow=none;dashed=1;html=1;dashPattern=1 3;strokeWidth=2;rounded=0;" parent="1" edge="1">
          <mxGeometry width="50" height="50" relative="1" as="geometry">
            <mxPoint x="440" y="260" as="sourcePoint" />
            <mxPoint x="460" y="260" as="targetPoint" />
          </mxGeometry>
        </mxCell>
        <mxCell id="nyTj451w1FUOhVBQuWbl-39" value="" style="endArrow=none;dashed=1;html=1;dashPattern=1 3;strokeWidth=2;rounded=0;" parent="1" edge="1">
          <mxGeometry width="50" height="50" relative="1" as="geometry">
            <mxPoint x="440" y="269.52" as="sourcePoint" />
            <mxPoint x="460" y="269.52" as="targetPoint" />
          </mxGeometry>
        </mxCell>
        <mxCell id="nyTj451w1FUOhVBQuWbl-41" value="" style="endArrow=none;dashed=1;html=1;dashPattern=1 3;strokeWidth=2;rounded=0;" parent="1" edge="1">
          <mxGeometry width="50" height="50" relative="1" as="geometry">
            <mxPoint x="440" y="279.52" as="sourcePoint" />
            <mxPoint x="460" y="279.52" as="targetPoint" />
          </mxGeometry>
        </mxCell>
        <mxCell id="nyTj451w1FUOhVBQuWbl-42" value="" style="endArrow=none;dashed=1;html=1;dashPattern=1 3;strokeWidth=2;rounded=0;" parent="1" edge="1">
          <mxGeometry width="50" height="50" relative="1" as="geometry">
            <mxPoint x="440" y="290" as="sourcePoint" />
            <mxPoint x="460" y="290" as="targetPoint" />
          </mxGeometry>
        </mxCell>
        <mxCell id="nyTj451w1FUOhVBQuWbl-43" value="" style="endArrow=none;dashed=1;html=1;dashPattern=1 3;strokeWidth=2;rounded=0;" parent="1" edge="1">
          <mxGeometry width="50" height="50" relative="1" as="geometry">
            <mxPoint x="440" y="250" as="sourcePoint" />
            <mxPoint x="460" y="250" as="targetPoint" />
          </mxGeometry>
        </mxCell>
        <mxCell id="nyTj451w1FUOhVBQuWbl-56" style="edgeStyle=orthogonalEdgeStyle;rounded=0;orthogonalLoop=1;jettySize=auto;html=1;flowAnimation=0;" parent="1" source="nyTj451w1FUOhVBQuWbl-46" edge="1">
          <mxGeometry relative="1" as="geometry">
            <mxPoint x="470" y="320" as="targetPoint" />
          </mxGeometry>
        </mxCell>
        <mxCell id="nyTj451w1FUOhVBQuWbl-57" style="edgeStyle=orthogonalEdgeStyle;rounded=0;orthogonalLoop=1;jettySize=auto;html=1;flowAnimation=0;" parent="1" source="nyTj451w1FUOhVBQuWbl-46" edge="1">
          <mxGeometry relative="1" as="geometry">
            <mxPoint x="470" y="380" as="targetPoint" />
          </mxGeometry>
        </mxCell>
        <mxCell id="nyTj451w1FUOhVBQuWbl-46" value="Support Vector Regressor" style="rounded=0;whiteSpace=wrap;html=1;fillColor=#dae8fc;gradientColor=#7ea6e0;strokeColor=#6c8ebf;" parent="1" vertex="1">
          <mxGeometry x="270" y="320" width="120" height="60" as="geometry" />
        </mxCell>
        <mxCell id="nyTj451w1FUOhVBQuWbl-58" style="edgeStyle=orthogonalEdgeStyle;rounded=0;orthogonalLoop=1;jettySize=auto;html=1;flowAnimation=0;" parent="1" source="nyTj451w1FUOhVBQuWbl-47" edge="1">
          <mxGeometry relative="1" as="geometry">
            <mxPoint x="470" y="400" as="targetPoint" />
          </mxGeometry>
        </mxCell>
        <mxCell id="nyTj451w1FUOhVBQuWbl-59" style="edgeStyle=orthogonalEdgeStyle;rounded=0;orthogonalLoop=1;jettySize=auto;html=1;flowAnimation=0;" parent="1" source="nyTj451w1FUOhVBQuWbl-47" edge="1">
          <mxGeometry relative="1" as="geometry">
            <mxPoint x="470" y="460" as="targetPoint" />
          </mxGeometry>
        </mxCell>
        <mxCell id="nyTj451w1FUOhVBQuWbl-47" value="Random Forest Regressor" style="rounded=0;whiteSpace=wrap;html=1;fillColor=#dae8fc;gradientColor=#7ea6e0;strokeColor=#6c8ebf;" parent="1" vertex="1">
          <mxGeometry x="270" y="400" width="120" height="60" as="geometry" />
        </mxCell>
        <mxCell id="nyTj451w1FUOhVBQuWbl-67" style="edgeStyle=orthogonalEdgeStyle;rounded=0;orthogonalLoop=1;jettySize=auto;html=1;flowAnimation=0;" parent="1" source="nyTj451w1FUOhVBQuWbl-48" edge="1">
          <mxGeometry relative="1" as="geometry">
            <mxPoint x="470" y="480" as="targetPoint" />
          </mxGeometry>
        </mxCell>
        <mxCell id="nyTj451w1FUOhVBQuWbl-68" style="edgeStyle=orthogonalEdgeStyle;rounded=0;orthogonalLoop=1;jettySize=auto;html=1;exitX=1;exitY=0.5;exitDx=0;exitDy=0;flowAnimation=0;" parent="1" source="nyTj451w1FUOhVBQuWbl-48" edge="1">
          <mxGeometry relative="1" as="geometry">
            <mxPoint x="470" y="540" as="targetPoint" />
          </mxGeometry>
        </mxCell>
        <mxCell id="nyTj451w1FUOhVBQuWbl-48" value="XGBoost Regressor" style="rounded=0;whiteSpace=wrap;html=1;fillColor=#dae8fc;gradientColor=#7ea6e0;strokeColor=#6c8ebf;" parent="1" vertex="1">
          <mxGeometry x="270" y="480" width="120" height="60" as="geometry" />
        </mxCell>
        <mxCell id="nyTj451w1FUOhVBQuWbl-69" style="edgeStyle=orthogonalEdgeStyle;rounded=0;orthogonalLoop=1;jettySize=auto;html=1;flowAnimation=0;" parent="1" source="nyTj451w1FUOhVBQuWbl-49" edge="1">
          <mxGeometry relative="1" as="geometry">
            <mxPoint x="470" y="560" as="targetPoint" />
          </mxGeometry>
        </mxCell>
        <mxCell id="nyTj451w1FUOhVBQuWbl-70" style="edgeStyle=orthogonalEdgeStyle;rounded=0;orthogonalLoop=1;jettySize=auto;html=1;flowAnimation=0;" parent="1" source="nyTj451w1FUOhVBQuWbl-49" edge="1">
          <mxGeometry relative="1" as="geometry">
            <mxPoint x="470" y="620" as="targetPoint" />
          </mxGeometry>
        </mxCell>
        <mxCell id="nyTj451w1FUOhVBQuWbl-49" value="ADABoost Regressor" style="rounded=0;whiteSpace=wrap;html=1;fillColor=#dae8fc;gradientColor=#7ea6e0;strokeColor=#6c8ebf;" parent="1" vertex="1">
          <mxGeometry x="270" y="560" width="120" height="60" as="geometry" />
        </mxCell>
        <mxCell id="nyTj451w1FUOhVBQuWbl-73" value="" style="endArrow=none;dashed=1;html=1;dashPattern=1 3;strokeWidth=2;rounded=0;" parent="1" edge="1">
          <mxGeometry width="50" height="50" relative="1" as="geometry">
            <mxPoint x="440" y="330" as="sourcePoint" />
            <mxPoint x="460" y="330" as="targetPoint" />
          </mxGeometry>
        </mxCell>
        <mxCell id="nyTj451w1FUOhVBQuWbl-75" value="" style="endArrow=none;dashed=1;html=1;dashPattern=1 3;strokeWidth=2;rounded=0;" parent="1" edge="1">
          <mxGeometry width="50" height="50" relative="1" as="geometry">
            <mxPoint x="440" y="340" as="sourcePoint" />
            <mxPoint x="460" y="340" as="targetPoint" />
          </mxGeometry>
        </mxCell>
        <mxCell id="nyTj451w1FUOhVBQuWbl-76" value="" style="endArrow=none;dashed=1;html=1;dashPattern=1 3;strokeWidth=2;rounded=0;" parent="1" edge="1">
          <mxGeometry width="50" height="50" relative="1" as="geometry">
            <mxPoint x="440" y="350" as="sourcePoint" />
            <mxPoint x="460" y="350" as="targetPoint" />
          </mxGeometry>
        </mxCell>
        <mxCell id="nyTj451w1FUOhVBQuWbl-77" value="" style="endArrow=none;dashed=1;html=1;dashPattern=1 3;strokeWidth=2;rounded=0;" parent="1" edge="1">
          <mxGeometry width="50" height="50" relative="1" as="geometry">
            <mxPoint x="440" y="360" as="sourcePoint" />
            <mxPoint x="460" y="360" as="targetPoint" />
          </mxGeometry>
        </mxCell>
        <mxCell id="nyTj451w1FUOhVBQuWbl-78" value="" style="endArrow=none;dashed=1;html=1;dashPattern=1 3;strokeWidth=2;rounded=0;" parent="1" edge="1">
          <mxGeometry width="50" height="50" relative="1" as="geometry">
            <mxPoint x="440" y="370" as="sourcePoint" />
            <mxPoint x="460" y="370" as="targetPoint" />
          </mxGeometry>
        </mxCell>
        <mxCell id="nyTj451w1FUOhVBQuWbl-79" value="" style="endArrow=none;dashed=1;html=1;dashPattern=1 3;strokeWidth=2;rounded=0;" parent="1" edge="1">
          <mxGeometry width="50" height="50" relative="1" as="geometry">
            <mxPoint x="440" y="410" as="sourcePoint" />
            <mxPoint x="460" y="410" as="targetPoint" />
          </mxGeometry>
        </mxCell>
        <mxCell id="nyTj451w1FUOhVBQuWbl-80" value="" style="endArrow=none;dashed=1;html=1;dashPattern=1 3;strokeWidth=2;rounded=0;" parent="1" edge="1">
          <mxGeometry width="50" height="50" relative="1" as="geometry">
            <mxPoint x="440" y="420" as="sourcePoint" />
            <mxPoint x="460" y="420" as="targetPoint" />
          </mxGeometry>
        </mxCell>
        <mxCell id="nyTj451w1FUOhVBQuWbl-81" value="" style="endArrow=none;dashed=1;html=1;dashPattern=1 3;strokeWidth=2;rounded=0;" parent="1" edge="1">
          <mxGeometry width="50" height="50" relative="1" as="geometry">
            <mxPoint x="440" y="429.52" as="sourcePoint" />
            <mxPoint x="460" y="429.52" as="targetPoint" />
          </mxGeometry>
        </mxCell>
        <mxCell id="nyTj451w1FUOhVBQuWbl-82" value="" style="endArrow=none;dashed=1;html=1;dashPattern=1 3;strokeWidth=2;rounded=0;" parent="1" edge="1">
          <mxGeometry width="50" height="50" relative="1" as="geometry">
            <mxPoint x="440" y="440" as="sourcePoint" />
            <mxPoint x="460" y="440" as="targetPoint" />
          </mxGeometry>
        </mxCell>
        <mxCell id="nyTj451w1FUOhVBQuWbl-83" value="" style="endArrow=none;dashed=1;html=1;dashPattern=1 3;strokeWidth=2;rounded=0;" parent="1" edge="1">
          <mxGeometry width="50" height="50" relative="1" as="geometry">
            <mxPoint x="440" y="450" as="sourcePoint" />
            <mxPoint x="460" y="450" as="targetPoint" />
          </mxGeometry>
        </mxCell>
        <mxCell id="nyTj451w1FUOhVBQuWbl-84" value="" style="endArrow=none;dashed=1;html=1;dashPattern=1 3;strokeWidth=2;rounded=0;" parent="1" edge="1">
          <mxGeometry width="50" height="50" relative="1" as="geometry">
            <mxPoint x="440" y="490" as="sourcePoint" />
            <mxPoint x="460" y="490" as="targetPoint" />
          </mxGeometry>
        </mxCell>
        <mxCell id="nyTj451w1FUOhVBQuWbl-85" value="" style="endArrow=none;dashed=1;html=1;dashPattern=1 3;strokeWidth=2;rounded=0;" parent="1" edge="1">
          <mxGeometry width="50" height="50" relative="1" as="geometry">
            <mxPoint x="440" y="500" as="sourcePoint" />
            <mxPoint x="460" y="500" as="targetPoint" />
          </mxGeometry>
        </mxCell>
        <mxCell id="nyTj451w1FUOhVBQuWbl-86" value="" style="endArrow=none;dashed=1;html=1;dashPattern=1 3;strokeWidth=2;rounded=0;" parent="1" edge="1">
          <mxGeometry width="50" height="50" relative="1" as="geometry">
            <mxPoint x="440" y="509.52" as="sourcePoint" />
            <mxPoint x="460" y="509.52" as="targetPoint" />
          </mxGeometry>
        </mxCell>
        <mxCell id="nyTj451w1FUOhVBQuWbl-87" value="" style="endArrow=none;dashed=1;html=1;dashPattern=1 3;strokeWidth=2;rounded=0;" parent="1" edge="1">
          <mxGeometry width="50" height="50" relative="1" as="geometry">
            <mxPoint x="440" y="520" as="sourcePoint" />
            <mxPoint x="460" y="520" as="targetPoint" />
          </mxGeometry>
        </mxCell>
        <mxCell id="nyTj451w1FUOhVBQuWbl-88" value="" style="endArrow=none;dashed=1;html=1;dashPattern=1 3;strokeWidth=2;rounded=0;" parent="1" edge="1">
          <mxGeometry width="50" height="50" relative="1" as="geometry">
            <mxPoint x="440" y="530" as="sourcePoint" />
            <mxPoint x="460" y="530" as="targetPoint" />
          </mxGeometry>
        </mxCell>
        <mxCell id="nyTj451w1FUOhVBQuWbl-89" value="" style="endArrow=none;dashed=1;html=1;dashPattern=1 3;strokeWidth=2;rounded=0;" parent="1" edge="1">
          <mxGeometry width="50" height="50" relative="1" as="geometry">
            <mxPoint x="440" y="570" as="sourcePoint" />
            <mxPoint x="460" y="570" as="targetPoint" />
          </mxGeometry>
        </mxCell>
        <mxCell id="nyTj451w1FUOhVBQuWbl-90" value="" style="endArrow=none;dashed=1;html=1;dashPattern=1 3;strokeWidth=2;rounded=0;" parent="1" edge="1">
          <mxGeometry width="50" height="50" relative="1" as="geometry">
            <mxPoint x="440" y="580" as="sourcePoint" />
            <mxPoint x="460" y="580" as="targetPoint" />
          </mxGeometry>
        </mxCell>
        <mxCell id="nyTj451w1FUOhVBQuWbl-91" value="" style="endArrow=none;dashed=1;html=1;dashPattern=1 3;strokeWidth=2;rounded=0;" parent="1" edge="1">
          <mxGeometry width="50" height="50" relative="1" as="geometry">
            <mxPoint x="440" y="589.52" as="sourcePoint" />
            <mxPoint x="460" y="589.52" as="targetPoint" />
          </mxGeometry>
        </mxCell>
        <mxCell id="nyTj451w1FUOhVBQuWbl-92" value="" style="endArrow=none;dashed=1;html=1;dashPattern=1 3;strokeWidth=2;rounded=0;" parent="1" edge="1">
          <mxGeometry width="50" height="50" relative="1" as="geometry">
            <mxPoint x="440" y="600" as="sourcePoint" />
            <mxPoint x="460" y="600" as="targetPoint" />
          </mxGeometry>
        </mxCell>
        <mxCell id="nyTj451w1FUOhVBQuWbl-93" value="" style="endArrow=none;dashed=1;html=1;dashPattern=1 3;strokeWidth=2;rounded=0;" parent="1" edge="1">
          <mxGeometry width="50" height="50" relative="1" as="geometry">
            <mxPoint x="440" y="610" as="sourcePoint" />
            <mxPoint x="460" y="610" as="targetPoint" />
          </mxGeometry>
        </mxCell>
        <mxCell id="nyTj451w1FUOhVBQuWbl-99" value="" style="endArrow=none;html=1;rounded=0;" parent="1" edge="1">
          <mxGeometry width="50" height="50" relative="1" as="geometry">
            <mxPoint x="480" y="310" as="sourcePoint" />
            <mxPoint x="480" y="240" as="targetPoint" />
          </mxGeometry>
        </mxCell>
        <mxCell id="nyTj451w1FUOhVBQuWbl-100" value="" style="endArrow=none;html=1;rounded=0;" parent="1" edge="1">
          <mxGeometry width="50" height="50" relative="1" as="geometry">
            <mxPoint x="480" y="390" as="sourcePoint" />
            <mxPoint x="480" y="320" as="targetPoint" />
          </mxGeometry>
        </mxCell>
        <mxCell id="nyTj451w1FUOhVBQuWbl-101" value="" style="endArrow=none;html=1;rounded=0;" parent="1" edge="1">
          <mxGeometry width="50" height="50" relative="1" as="geometry">
            <mxPoint x="480" y="470" as="sourcePoint" />
            <mxPoint x="480" y="400" as="targetPoint" />
          </mxGeometry>
        </mxCell>
        <mxCell id="nyTj451w1FUOhVBQuWbl-102" value="" style="endArrow=none;html=1;rounded=0;" parent="1" edge="1">
          <mxGeometry width="50" height="50" relative="1" as="geometry">
            <mxPoint x="480" y="550" as="sourcePoint" />
            <mxPoint x="480" y="480" as="targetPoint" />
          </mxGeometry>
        </mxCell>
        <mxCell id="nyTj451w1FUOhVBQuWbl-103" value="" style="endArrow=none;html=1;rounded=0;" parent="1" edge="1">
          <mxGeometry width="50" height="50" relative="1" as="geometry">
            <mxPoint x="480" y="630" as="sourcePoint" />
            <mxPoint x="480" y="560" as="targetPoint" />
          </mxGeometry>
        </mxCell>
        <mxCell id="nyTj451w1FUOhVBQuWbl-105" value="Best&lt;br&gt;Performer" style="ellipse;whiteSpace=wrap;html=1;aspect=fixed;rotation=0;fillColor=#ba0d0d;direction=south;fillStyle=auto;gradientColor=none;gradientDirection=north;labelBackgroundColor=none;labelBorderColor=none;fontColor=#04ff00;" parent="1" vertex="1">
          <mxGeometry x="530" y="245" width="60" height="60" as="geometry" />
        </mxCell>
        <mxCell id="nyTj451w1FUOhVBQuWbl-145" style="edgeStyle=orthogonalEdgeStyle;rounded=0;orthogonalLoop=1;jettySize=auto;html=1;exitX=0.5;exitY=0;exitDx=0;exitDy=0;" parent="1" source="nyTj451w1FUOhVBQuWbl-122" edge="1">
          <mxGeometry relative="1" as="geometry">
            <mxPoint x="700" y="380" as="targetPoint" />
          </mxGeometry>
        </mxCell>
        <mxCell id="nyTj451w1FUOhVBQuWbl-122" value="Best&lt;br&gt;Performer" style="ellipse;whiteSpace=wrap;html=1;aspect=fixed;rotation=0;fillColor=#ba0d0d;direction=south;strokeColor=#000000;fontColor=#04ff00;" parent="1" vertex="1">
          <mxGeometry x="530" y="320" width="60" height="60" as="geometry" />
        </mxCell>
        <mxCell id="nyTj451w1FUOhVBQuWbl-123" value="Best&lt;br&gt;Performer" style="ellipse;whiteSpace=wrap;html=1;aspect=fixed;rotation=0;fillColor=#ba0d0d;direction=south;fontColor=#04ff00;" parent="1" vertex="1">
          <mxGeometry x="530" y="400" width="60" height="60" as="geometry" />
        </mxCell>
        <mxCell id="nyTj451w1FUOhVBQuWbl-124" value="Best&lt;br&gt;Performer" style="ellipse;whiteSpace=wrap;html=1;aspect=fixed;rotation=0;fillColor=#ba0d0d;direction=south;fontColor=#04ff00;" parent="1" vertex="1">
          <mxGeometry x="530" y="480" width="60" height="60" as="geometry" />
        </mxCell>
        <mxCell id="nyTj451w1FUOhVBQuWbl-125" value="Best&lt;br&gt;Performer" style="ellipse;whiteSpace=wrap;html=1;aspect=fixed;rotation=0;fillColor=#ba0d0d;direction=south;fontColor=#04ff00;" parent="1" vertex="1">
          <mxGeometry x="530" y="560" width="60" height="60" as="geometry" />
        </mxCell>
        <mxCell id="nyTj451w1FUOhVBQuWbl-127" value="" style="endArrow=classic;html=1;rounded=0;entryX=0.5;entryY=1;entryDx=0;entryDy=0;" parent="1" target="nyTj451w1FUOhVBQuWbl-105" edge="1">
          <mxGeometry width="50" height="50" relative="1" as="geometry">
            <mxPoint x="480" y="275" as="sourcePoint" />
            <mxPoint x="530" y="220" as="targetPoint" />
          </mxGeometry>
        </mxCell>
        <mxCell id="nyTj451w1FUOhVBQuWbl-128" value="" style="endArrow=classic;html=1;rounded=0;entryX=0.5;entryY=1;entryDx=0;entryDy=0;" parent="1" edge="1">
          <mxGeometry width="50" height="50" relative="1" as="geometry">
            <mxPoint x="480" y="350" as="sourcePoint" />
            <mxPoint x="530" y="350" as="targetPoint" />
          </mxGeometry>
        </mxCell>
        <mxCell id="nyTj451w1FUOhVBQuWbl-129" value="" style="endArrow=classic;html=1;rounded=0;entryX=0.5;entryY=1;entryDx=0;entryDy=0;" parent="1" edge="1">
          <mxGeometry width="50" height="50" relative="1" as="geometry">
            <mxPoint x="480" y="430" as="sourcePoint" />
            <mxPoint x="530" y="430" as="targetPoint" />
          </mxGeometry>
        </mxCell>
        <mxCell id="nyTj451w1FUOhVBQuWbl-130" value="" style="endArrow=classic;html=1;rounded=0;entryX=0.5;entryY=1;entryDx=0;entryDy=0;" parent="1" edge="1">
          <mxGeometry width="50" height="50" relative="1" as="geometry">
            <mxPoint x="480" y="509.52" as="sourcePoint" />
            <mxPoint x="530" y="509.52" as="targetPoint" />
          </mxGeometry>
        </mxCell>
        <mxCell id="nyTj451w1FUOhVBQuWbl-131" value="" style="endArrow=classic;html=1;rounded=0;entryX=0.5;entryY=1;entryDx=0;entryDy=0;" parent="1" edge="1">
          <mxGeometry width="50" height="50" relative="1" as="geometry">
            <mxPoint x="480" y="590" as="sourcePoint" />
            <mxPoint x="530" y="590" as="targetPoint" />
          </mxGeometry>
        </mxCell>
        <mxCell id="nyTj451w1FUOhVBQuWbl-139" value="" style="verticalLabelPosition=bottom;verticalAlign=top;html=1;shape=mxgraph.basic.corner_round_rect;dx=6;whiteSpace=wrap;fillColor=default;gradientColor=#990a95;strokeColor=#996185;gradientDirection=south;" parent="1" vertex="1">
          <mxGeometry x="700" y="280" width="150" height="150" as="geometry" />
        </mxCell>
        <mxCell id="nyTj451w1FUOhVBQuWbl-144" style="edgeStyle=orthogonalEdgeStyle;rounded=0;orthogonalLoop=1;jettySize=auto;html=1;exitX=0.5;exitY=0;exitDx=0;exitDy=0;" parent="1" source="nyTj451w1FUOhVBQuWbl-105" edge="1">
          <mxGeometry relative="1" as="geometry">
            <mxPoint x="600" y="280" as="sourcePoint" />
            <mxPoint x="700" y="380" as="targetPoint" />
            <Array as="points">
              <mxPoint x="590" y="280" />
              <mxPoint x="645" y="280" />
              <mxPoint x="645" y="380" />
            </Array>
          </mxGeometry>
        </mxCell>
        <mxCell id="nyTj451w1FUOhVBQuWbl-147" style="edgeStyle=orthogonalEdgeStyle;rounded=0;orthogonalLoop=1;jettySize=auto;html=1;exitX=0.5;exitY=0;exitDx=0;exitDy=0;" parent="1" source="nyTj451w1FUOhVBQuWbl-123" edge="1">
          <mxGeometry relative="1" as="geometry">
            <mxPoint x="700" y="380" as="targetPoint" />
            <Array as="points">
              <mxPoint x="645" y="430" />
              <mxPoint x="645" y="380" />
            </Array>
          </mxGeometry>
        </mxCell>
        <mxCell id="nyTj451w1FUOhVBQuWbl-166" style="edgeStyle=orthogonalEdgeStyle;rounded=0;orthogonalLoop=1;jettySize=auto;html=1;entryX=0;entryY=0.5;entryDx=0;entryDy=0;exitX=1;exitY=0.5;exitDx=0;exitDy=0;exitPerimeter=0;" parent="1" source="nyTj451w1FUOhVBQuWbl-139" edge="1" target="nyTj451w1FUOhVBQuWbl-173">
          <mxGeometry relative="1" as="geometry">
            <mxPoint x="890" y="380" as="sourcePoint" />
            <mxPoint x="990.0000000000014" y="380" as="targetPoint" />
            <Array as="points" />
          </mxGeometry>
        </mxCell>
        <mxCell id="nyTj451w1FUOhVBQuWbl-157" value="&lt;h1 style=&quot;margin-top: 0px; font-size: 30px;&quot;&gt;Simple Averaging&lt;/h1&gt;" style="text;html=1;whiteSpace=wrap;overflow=hidden;rounded=0;fontFamily=Garamond;align=center;fontSize=30;" parent="1" vertex="1">
          <mxGeometry x="710" y="330" width="130" height="85" as="geometry" />
        </mxCell>
        <mxCell id="nyTj451w1FUOhVBQuWbl-170" style="edgeStyle=orthogonalEdgeStyle;rounded=0;orthogonalLoop=1;jettySize=auto;html=1;exitX=0.5;exitY=1;exitDx=0;exitDy=0;exitPerimeter=0;" parent="1" source="nyTj451w1FUOhVBQuWbl-139" target="nyTj451w1FUOhVBQuWbl-139" edge="1">
          <mxGeometry relative="1" as="geometry" />
        </mxCell>
        <mxCell id="nyTj451w1FUOhVBQuWbl-171" style="edgeStyle=orthogonalEdgeStyle;rounded=0;orthogonalLoop=1;jettySize=auto;html=1;entryX=0;entryY=0.5;entryDx=0;entryDy=0;entryPerimeter=0;" parent="1" source="nyTj451w1FUOhVBQuWbl-124" target="nyTj451w1FUOhVBQuWbl-139" edge="1">
          <mxGeometry relative="1" as="geometry" />
        </mxCell>
        <mxCell id="nyTj451w1FUOhVBQuWbl-172" style="edgeStyle=orthogonalEdgeStyle;rounded=0;orthogonalLoop=1;jettySize=auto;html=1;entryX=0;entryY=0.5;entryDx=0;entryDy=0;entryPerimeter=0;" parent="1" source="nyTj451w1FUOhVBQuWbl-125" target="nyTj451w1FUOhVBQuWbl-139" edge="1">
          <mxGeometry relative="1" as="geometry" />
        </mxCell>
        <mxCell id="nyTj451w1FUOhVBQuWbl-173" value="" style="ellipse;whiteSpace=wrap;html=1;aspect=fixed;fillColor=#04ff00;fillStyle=zigzag-line;" parent="1" vertex="1">
          <mxGeometry x="949.25" y="284.25" width="141.5" height="141.5" as="geometry" />
        </mxCell>
        <mxCell id="nyTj451w1FUOhVBQuWbl-174" value="&lt;h1&gt;OUTPUT&lt;/h1&gt;" style="text;html=1;align=center;verticalAlign=middle;rounded=0;labelBackgroundColor=default;labelBorderColor=#00ff1e;textShadow=1;whiteSpace=wrap;" parent="1" vertex="1">
          <mxGeometry x="990" y="340" width="60" height="30" as="geometry" />
        </mxCell>
        <mxCell id="epYIrqpOVhf9hrF9o7eT-3" value="Multiple&lt;div&gt;Parameters &amp;amp; values&lt;/div&gt;" style="text;html=1;align=center;verticalAlign=middle;whiteSpace=wrap;rounded=0;" vertex="1" parent="1">
          <mxGeometry x="380" y="180" width="120" height="30" as="geometry" />
        </mxCell>
        <mxCell id="epYIrqpOVhf9hrF9o7eT-5" value="" style="endArrow=none;dashed=1;html=1;rounded=0;entryX=0.5;entryY=1;entryDx=0;entryDy=0;" edge="1" parent="1" target="epYIrqpOVhf9hrF9o7eT-4">
          <mxGeometry width="50" height="50" relative="1" as="geometry">
            <mxPoint x="450" y="270" as="sourcePoint" />
            <mxPoint x="610" y="190" as="targetPoint" />
          </mxGeometry>
        </mxCell>
        <mxCell id="epYIrqpOVhf9hrF9o7eT-6" value="Selecting Best Performing Parameters&amp;amp;Values" style="rounded=0;whiteSpace=wrap;html=1;" vertex="1" parent="1">
          <mxGeometry x="520" y="165" width="120" height="60" as="geometry" />
        </mxCell>
        <mxCell id="epYIrqpOVhf9hrF9o7eT-7" value="" style="endArrow=none;dashed=1;html=1;rounded=0;exitX=0.5;exitY=1;exitDx=0;exitDy=0;" edge="1" parent="1" source="epYIrqpOVhf9hrF9o7eT-6">
          <mxGeometry width="50" height="50" relative="1" as="geometry">
            <mxPoint x="560" y="220" as="sourcePoint" />
            <mxPoint x="480" y="280" as="targetPoint" />
          </mxGeometry>
        </mxCell>
        <mxCell id="epYIrqpOVhf9hrF9o7eT-8" value="ensemble" style="text;html=1;align=center;verticalAlign=middle;whiteSpace=wrap;rounded=0;" vertex="1" parent="1">
          <mxGeometry x="745" y="290" width="60" height="30" as="geometry" />
        </mxCell>
      </root>
    </mxGraphModel>
  </diagram>
</mxfile>
